<svg width="16" height="16" viewBox="0 0 16 16" fill="none" xmlns="http://www.w3.org/2000/svg">
<g clip-path="url(#clip0_411_384)">
<path d="M0.967058 9.11866C1.03253 9.12928 1.09878 9.13419 1.16507 9.13333H12.4528L12.2066 9.24781C11.966 9.36168 11.7472 9.51665 11.5598 9.70572L8.39447 12.8711C7.97758 13.269 7.90754 13.9092 8.22847 14.3879C8.60199 14.898 9.31831 15.0088 9.82846 14.6353C9.86967 14.6051 9.90885 14.5722 9.94566 14.5367L15.6696 8.81279C16.1169 8.36596 16.1173 7.64113 15.6705 7.1938C15.6702 7.19351 15.6699 7.19319 15.6696 7.19291L9.94566 1.46895C9.49797 1.02252 8.77314 1.02352 8.32667 1.4712C8.29154 1.50644 8.25874 1.54393 8.22847 1.58343C7.90754 2.06213 7.97758 2.70232 8.39447 3.10028L11.5541 6.27135C11.7221 6.43949 11.9152 6.58048 12.1265 6.6892L12.4699 6.84374H1.22807C0.643261 6.82203 0.130179 7.23054 0.0203152 7.80537C-0.0808926 8.42946 0.342968 9.01742 0.967058 9.11866Z" fill="#F55D22"/>
</g>
<defs>
<clipPath id="clip0_411_384">
<rect width="16" height="16" fill="white" transform="matrix(-1 0 0 -1 16 16)"/>
</clipPath>
</defs>
</svg>
