<svg width="40" height="40" viewBox="0 0 40 40" fill="none" xmlns="http://www.w3.org/2000/svg">
<path d="M10 3.75H11.25V5H10V3.75Z" fill="url(#paint0_linear_336_2669)"/>
<path d="M7.5 3.75H8.75V5H7.5V3.75Z" fill="url(#paint1_linear_336_2669)"/>
<path d="M5 3.75H6.25V5H5V3.75Z" fill="url(#paint2_linear_336_2669)"/>
<path d="M34.375 1.25H5.625C4.46508 1.25132 3.35305 1.71268 2.53287 2.53287C1.71268 3.35305 1.25132 4.46508 1.25 5.625V26.875C1.25132 28.0349 1.71268 29.1469 2.53287 29.9671C3.35305 30.7873 4.46508 31.2487 5.625 31.25V30C4.7965 29.999 4.00222 29.6694 3.41639 29.0836C2.83055 28.4978 2.50099 27.7035 2.5 26.875V7.5H36.25V6.25H2.5V5.625C2.50099 4.7965 2.83055 4.00222 3.41639 3.41639C4.00222 2.83055 4.7965 2.50099 5.625 2.5H34.375C35.2035 2.50099 35.9978 2.83055 36.5836 3.41639C37.1694 4.00222 37.499 4.7965 37.5 5.625V26.875C37.499 27.7035 37.1694 28.4978 36.5836 29.0836C35.9978 29.6694 35.2035 29.999 34.375 30V31.25C35.5349 31.2487 36.6469 30.7873 37.4671 29.9671C38.2873 29.1469 38.7487 28.0349 38.75 26.875V5.625C38.7487 4.46508 38.2873 3.35305 37.4671 2.53287C36.6469 1.71268 35.5349 1.25132 34.375 1.25Z" fill="url(#paint3_linear_336_2669)"/>
<path d="M12.5 3.75H21.25V5H12.5V3.75Z" fill="url(#paint4_linear_336_2669)"/>
<path d="M34.375 15.6376C34.3741 14.8555 34.1253 14.0938 33.6644 13.462C33.6362 13.4069 33.6002 13.3562 33.5575 13.3114C33.535 13.2876 33.495 13.237 33.4463 13.1864C33.3838 13.117 33.3213 13.0457 33.28 12.9989C32.6732 12.1663 32.3954 11.1388 32.5 10.1139C32.5201 9.98373 32.4986 9.85059 32.4385 9.73342C32.3784 9.61625 32.2829 9.52105 32.1655 9.46139C32.0482 9.40173 31.9149 9.38067 31.7849 9.4012C31.6548 9.42173 31.5346 9.48282 31.4413 9.57573L27.685 13.3201C27.664 13.3413 27.6443 13.3638 27.6263 13.3876C27.1609 14.005 26.8993 14.7519 26.8779 15.5248C26.8565 16.2976 27.0764 17.058 27.5069 17.7001L28.1369 37.8507L28.5819 38.152C29.1892 38.5537 29.9015 38.7676 30.6297 38.7669C31.3578 38.7663 32.0697 38.5511 32.6763 38.1482L33.1138 37.8507L33.7444 17.7001C34.1551 17.0906 34.3747 16.3725 34.375 15.6376ZM28.6 14.172L31.3063 11.4745C31.4406 12.3215 31.7884 13.1203 32.3169 13.7957C32.3307 13.812 32.3488 13.8326 32.3638 13.8476C32.3932 13.8776 32.4494 13.9432 32.5032 14.0051L32.57 14.0814C32.5802 14.0981 32.5915 14.1142 32.6038 14.1295C32.9376 14.5582 33.1208 15.085 33.125 15.6284C33.1292 16.1717 32.9541 16.7013 32.6269 17.1351C32.394 17.4456 32.0921 17.6976 31.7449 17.8712C31.3978 18.0447 31.015 18.1351 30.6269 18.1351C30.2388 18.1351 29.856 18.0447 29.5089 17.8712C29.1617 17.6976 28.8598 17.4456 28.6269 17.1351C28.2993 16.704 28.1235 16.1766 28.1269 15.6351C28.1256 15.1096 28.2913 14.5972 28.6 14.172ZM29.3644 37.172L28.7932 18.9001C29.3509 19.2194 29.9824 19.3873 30.625 19.3873C31.2677 19.3873 31.8992 19.2194 32.4569 18.9001L31.8857 37.1695C31.5048 37.3978 31.0692 37.5185 30.6251 37.5186C30.1811 37.5187 29.7454 37.3983 29.3644 37.1701V37.172Z" fill="url(#paint5_linear_336_2669)"/>
<path d="M21.875 8.75H18.125C17.462 8.75 16.8261 9.01339 16.3572 9.48223C15.8884 9.95107 15.625 10.587 15.625 11.25V36.25C15.625 36.913 15.8884 37.5489 16.3572 38.0178C16.8261 38.4866 17.462 38.75 18.125 38.75H21.875C22.538 38.75 23.1739 38.4866 23.6428 38.0178C24.1116 37.5489 24.375 36.913 24.375 36.25V11.25C24.375 10.587 24.1116 9.95107 23.6428 9.48223C23.1739 9.01339 22.538 8.75 21.875 8.75ZM21.875 37.5H18.125C17.7935 37.5 17.4755 37.3683 17.2411 37.1339C17.0067 36.8995 16.875 36.5815 16.875 36.25V11.25C16.875 10.9185 17.0067 10.6005 17.2411 10.3661C17.4755 10.1317 17.7935 10 18.125 10H21.875C22.2065 10 22.5245 10.1317 22.7589 10.3661C22.9933 10.6005 23.125 10.9185 23.125 11.25V11.875H20.625V13.125H23.125V14.375H21.875V15.625H23.125V16.875H21.875V18.125H23.125V19.375H20.625V20.625H23.125V21.875H21.875V23.125H23.125V24.375H21.875V25.625H23.125V26.875H20.625V28.125H23.125V29.375H21.875V30.625H23.125V31.875H21.875V33.125H23.125V34.375H20.625V35.625H23.125V36.25C23.125 36.5815 22.9933 36.8995 22.7589 37.1339C22.5245 37.3683 22.2065 37.5 21.875 37.5Z" fill="url(#paint6_linear_336_2669)"/>
<path d="M13.0712 15.9962L10.5712 10.3712C10.5222 10.2606 10.4421 10.1667 10.3407 10.1008C10.2393 10.0348 10.1209 9.99976 10 9.99976C9.87905 9.99976 9.7607 10.0348 9.65931 10.1008C9.55791 10.1667 9.47782 10.2606 9.42875 10.3712L6.92875 15.9962C6.89434 16.0763 6.8773 16.1628 6.87875 16.2499H6.875V36.8749C6.875 37.3722 7.07254 37.8491 7.42417 38.2008C7.77581 38.5524 8.25272 38.7499 8.75 38.7499H11.25C11.7473 38.7499 12.2242 38.5524 12.5758 38.2008C12.9275 37.8491 13.125 37.3722 13.125 36.8749V16.2499H13.1212C13.1227 16.1628 13.1057 16.0763 13.0712 15.9962ZM9.375 18.1249V33.7499H8.125V16.8749H11.875V33.7499H10.625V18.1249H9.375ZM10 12.1637L11.5381 15.6249H8.46187L10 12.1637ZM11.25 37.4999H8.75C8.58424 37.4999 8.42527 37.4341 8.30806 37.3169C8.19085 37.1997 8.125 37.0407 8.125 36.8749V34.9999H11.875V36.8749C11.875 37.0407 11.8092 37.1997 11.6919 37.3169C11.5747 37.4341 11.4158 37.4999 11.25 37.4999Z" fill="url(#paint7_linear_336_2669)"/>
<defs>
<linearGradient id="paint0_linear_336_2669" x1="9.98102" y1="4.05413" x2="11.3102" y2="4.12713" gradientUnits="userSpaceOnUse">
<stop offset="0.153052" stop-color="#B352F4"/>
<stop offset="1" stop-color="#EF3AA5"/>
</linearGradient>
<linearGradient id="paint1_linear_336_2669" x1="7.48102" y1="4.05413" x2="8.81019" y2="4.12713" gradientUnits="userSpaceOnUse">
<stop offset="0.153052" stop-color="#B352F4"/>
<stop offset="1" stop-color="#EF3AA5"/>
</linearGradient>
<linearGradient id="paint2_linear_336_2669" x1="4.98102" y1="4.05413" x2="6.31019" y2="4.12713" gradientUnits="userSpaceOnUse">
<stop offset="0.153052" stop-color="#B352F4"/>
<stop offset="1" stop-color="#EF3AA5"/>
</linearGradient>
<linearGradient id="paint3_linear_336_2669" x1="0.68066" y1="8.54922" x2="40.4883" y2="11.2819" gradientUnits="userSpaceOnUse">
<stop offset="0.153052" stop-color="#B352F4"/>
<stop offset="1" stop-color="#EF3AA5"/>
</linearGradient>
<linearGradient id="paint4_linear_336_2669" x1="12.3672" y1="4.05413" x2="20.4978" y2="7.17976" gradientUnits="userSpaceOnUse">
<stop offset="0.153052" stop-color="#B352F4"/>
<stop offset="1" stop-color="#EF3AA5"/>
</linearGradient>
<linearGradient id="paint5_linear_336_2669" x1="26.7626" y1="16.5403" x2="34.7586" y2="16.6524" gradientUnits="userSpaceOnUse">
<stop offset="0.153052" stop-color="#B352F4"/>
<stop offset="1" stop-color="#EF3AA5"/>
</linearGradient>
<linearGradient id="paint6_linear_336_2669" x1="15.4922" y1="16.0492" x2="24.822" y2="16.1987" gradientUnits="userSpaceOnUse">
<stop offset="0.153052" stop-color="#B352F4"/>
<stop offset="1" stop-color="#EF3AA5"/>
</linearGradient>
<linearGradient id="paint7_linear_336_2669" x1="6.78011" y1="16.9949" x2="13.445" y2="17.0745" gradientUnits="userSpaceOnUse">
<stop offset="0.153052" stop-color="#B352F4"/>
<stop offset="1" stop-color="#EF3AA5"/>
</linearGradient>
</defs>
</svg>
