<svg width="31" height="32" viewBox="0 0 31 32" fill="none" xmlns="http://www.w3.org/2000/svg">
<path d="M18.1551 16C18.1551 17.6914 16.8493 19.0625 15.2384 19.0625C13.6276 19.0625 12.3218 17.6914 12.3218 16C12.3218 14.3086 13.6276 12.9375 15.2384 12.9375C16.8493 12.9375 18.1551 14.3086 18.1551 16Z" fill="url(#paint0_linear_336_3895)"/>
<path d="M22.0591 10.5823C21.9189 10.1833 21.6952 9.82227 21.4045 9.52588C21.1223 9.2207 20.7786 8.98584 20.3984 8.83862C20.0901 8.71289 19.627 8.56323 18.7739 8.52246C17.851 8.47827 17.5743 8.46875 15.238 8.46875C12.9015 8.46875 12.6248 8.47803 11.7021 8.52222C10.8491 8.56323 10.3856 8.71289 10.0776 8.83862C9.69741 8.98584 9.35352 9.2207 9.07148 9.52588C8.78083 9.82227 8.55715 10.1831 8.41671 10.5823C8.29697 10.906 8.15444 11.3926 8.11561 12.2883C8.07352 13.2571 8.06445 13.5476 8.06445 16.001C8.06445 18.4541 8.07352 18.7446 8.11561 19.7136C8.15444 20.6094 8.29697 21.0957 8.41671 21.4194C8.55715 21.8186 8.7806 22.1794 9.07124 22.4758C9.35352 22.781 9.69717 23.0159 10.0773 23.1631C10.3856 23.2891 10.8491 23.4387 11.7021 23.4795C12.6248 23.5237 12.9012 23.533 15.2378 23.533C17.5745 23.533 17.8512 23.5237 18.7736 23.4795C19.6267 23.4387 20.0901 23.2891 20.3984 23.1631C21.1616 22.854 21.7647 22.2207 22.0591 21.4194C22.1788 21.0957 22.3213 20.6094 22.3604 19.7136C22.4025 18.7446 22.4113 18.4541 22.4113 16.001C22.4113 13.5476 22.4025 13.2571 22.3604 12.2883C22.3216 11.3926 22.179 10.906 22.0591 10.5823ZM15.238 20.7185C12.7564 20.7185 10.7447 18.6064 10.7447 16.0007C10.7447 13.395 12.7564 11.283 15.238 11.283C17.7194 11.283 19.7311 13.395 19.7311 16.0007C19.7311 18.6064 17.7194 20.7185 15.238 20.7185ZM19.9088 12.199C19.3289 12.199 18.8587 11.7053 18.8587 11.0964C18.8587 10.4875 19.3289 9.9939 19.9088 9.9939C20.4887 9.9939 20.9588 10.4875 20.9588 11.0964C20.9586 11.7053 20.4887 12.199 19.9088 12.199Z" fill="url(#paint1_linear_336_3895)"/>
<path d="M15.2381 0C6.82361 0 0 7.16479 0 16C0 24.8352 6.82361 32 15.2381 32C23.6526 32 30.4762 24.8352 30.4762 16C30.4762 7.16479 23.6526 0 15.2381 0ZM23.9353 19.7878C23.893 20.7659 23.7449 21.4336 23.5286 22.0181C23.0741 23.2522 22.145 24.2278 20.9696 24.7051C20.4132 24.9321 19.777 25.0874 18.8458 25.1321C17.9127 25.1768 17.6146 25.1875 15.2383 25.1875C12.8618 25.1875 12.5639 25.1768 11.6306 25.1321C10.6994 25.0874 10.0632 24.9321 9.50684 24.7051C8.92276 24.4744 8.39402 24.1128 7.95689 23.6453C7.51186 23.1865 7.1675 22.6311 6.94778 22.0181C6.73154 21.4338 6.58343 20.7659 6.54111 19.7881C6.49809 18.8081 6.4881 18.4951 6.4881 16C6.4881 13.5049 6.49809 13.1919 6.54088 12.2122C6.58319 11.2341 6.73107 10.5664 6.94731 9.98193C7.16704 9.3689 7.51163 8.81348 7.95689 8.35474C8.39379 7.88721 8.92276 7.52563 9.5066 7.29492C10.0632 7.06787 10.6992 6.9126 11.6306 6.86792C12.5637 6.82324 12.8618 6.8125 15.2381 6.8125C17.6144 6.8125 17.9125 6.82324 18.8456 6.86816C19.777 6.9126 20.4129 7.06787 20.9696 7.29468C21.5534 7.52539 22.0824 7.88721 22.5195 8.35474C22.9646 8.81372 23.3092 9.3689 23.5286 9.98193C23.7451 10.5664 23.893 11.2341 23.9355 12.2122C23.9781 13.1919 23.9881 13.5049 23.9881 16C23.9881 18.4951 23.9781 18.8081 23.9353 19.7878Z" fill="url(#paint2_linear_336_3895)"/>
<defs>
<linearGradient id="paint0_linear_336_3895" x1="12.2332" y1="14.4278" x2="18.4377" y2="14.7523" gradientUnits="userSpaceOnUse">
<stop stop-color="#FECB32"/>
<stop offset="1" stop-color="#F55D22"/>
</linearGradient>
<linearGradient id="paint1_linear_336_3895" x1="7.84663" y1="12.134" x2="23.1064" y2="12.9321" gradientUnits="userSpaceOnUse">
<stop stop-color="#FECB32"/>
<stop offset="1" stop-color="#F55D22"/>
</linearGradient>
<linearGradient id="paint2_linear_336_3895" x1="-0.462701" y1="7.78583" x2="31.9527" y2="9.48125" gradientUnits="userSpaceOnUse">
<stop stop-color="#FECB32"/>
<stop offset="1" stop-color="#F55D22"/>
</linearGradient>
</defs>
</svg>
