<svg width="31" height="32" viewBox="0 0 31 32" fill="none" xmlns="http://www.w3.org/2000/svg">
<path d="M15.2381 0C12.2243 0 9.27816 0.938383 6.77227 2.69649C4.26638 4.45459 2.31327 6.95344 1.15994 9.87706C0.00660239 12.8007 -0.295163 16.0177 0.292802 19.1214C0.880768 22.2251 2.33205 25.0761 4.46314 27.3137C6.59423 29.5513 9.30939 31.0752 12.2653 31.6926C15.2212 32.3099 18.2851 31.9931 21.0695 30.7821C23.8539 29.5711 26.2337 27.5203 27.9081 24.8891C29.5825 22.2579 30.4762 19.1645 30.4762 16C30.4762 11.7565 28.8707 7.68687 26.0131 4.68629C23.1554 1.68571 19.2795 0 15.2381 0ZM10.807 24.421H7.48271V13.1768H10.807V24.421ZM9.14286 11.6421C8.76028 11.6438 8.38581 11.5263 8.0668 11.3045C7.74779 11.0828 7.49855 10.7667 7.35058 10.3962C7.20262 10.0258 7.16258 9.61758 7.23552 9.22323C7.30846 8.82888 7.4911 8.46609 7.76037 8.18071C8.02964 7.89533 8.37343 7.70018 8.74831 7.61992C9.12318 7.53966 9.5123 7.5779 9.86648 7.7298C10.2207 7.8817 10.524 8.14045 10.7382 8.47333C10.9523 8.80621 11.0677 9.19829 11.0697 9.6C11.0708 10.1387 10.8687 10.6559 10.5076 11.0385C10.1465 11.4212 9.65587 11.6382 9.14286 11.6421ZM23.2581 24.421H19.9358V18.9474C19.9358 17.6421 19.9118 15.9684 18.2075 15.9684C16.5033 15.9684 16.2025 17.3874 16.2025 18.8526V24.421H12.8922V13.1768H16.0822V14.7095H16.1283C16.5714 13.8253 17.6561 12.8926 19.2742 12.8926C22.6386 12.8926 23.2581 15.221 23.2581 18.2442V24.421Z" fill="url(#paint0_linear_336_3891)"/>
<defs>
<linearGradient id="paint0_linear_336_3891" x1="-0.462701" y1="7.78583" x2="31.9527" y2="9.48125" gradientUnits="userSpaceOnUse">
<stop stop-color="#FECB32"/>
<stop offset="1" stop-color="#F55D22"/>
</linearGradient>
</defs>
</svg>
