<svg width="31" height="32" viewBox="0 0 31 32" fill="none" xmlns="http://www.w3.org/2000/svg">
<path d="M15.2381 0C6.83584 0 0 7.17763 0 16C0 24.8217 6.83584 32 15.2381 32C23.6397 32 30.4762 24.8217 30.4762 16C30.4762 7.17763 23.641 0 15.2381 0ZM19.0277 16.5633H16.5485V25.8413H12.875C12.875 25.8413 12.875 20.7718 12.875 16.5633H11.1287V13.2841H12.875V11.1631C12.875 9.64408 13.5624 7.27044 16.5823 7.27044L19.3045 7.2814V10.4645C19.3045 10.4645 17.6503 10.4645 17.3287 10.4645C17.007 10.4645 16.5498 10.6334 16.5498 11.3578V13.2848H19.3487L19.0277 16.5633Z" fill="url(#paint0_linear_336_3893)"/>
<defs>
<linearGradient id="paint0_linear_336_3893" x1="-0.462701" y1="7.78583" x2="31.9527" y2="9.48125" gradientUnits="userSpaceOnUse">
<stop stop-color="#FECB32"/>
<stop offset="1" stop-color="#F55D22"/>
</linearGradient>
</defs>
</svg>
