<svg width="40" height="40" viewBox="0 0 40 40" fill="none" xmlns="http://www.w3.org/2000/svg">
<path fill-rule="evenodd" clip-rule="evenodd" d="M18.3075 3.91827H16.4567V6.09499H23.5433V3.91827H21.6925V3.91632C21.5617 3.91631 21.4361 3.86473 21.3431 3.77278C21.25 3.68082 21.197 3.55589 21.1954 3.42507C21.1821 2.37757 19.9063 1.85687 19.1606 2.59234C19.0501 2.70012 18.962 2.82863 18.9012 2.97052C18.8405 3.11241 18.8083 3.26488 18.8066 3.41921C18.8066 3.55157 18.754 3.67851 18.6604 3.7721C18.5668 3.86569 18.4399 3.91827 18.3075 3.91827ZM18.7091 10.5184C18.5767 10.5184 18.4498 10.4659 18.3562 10.3723C18.2626 10.2787 18.21 10.1517 18.21 10.0194C18.21 9.88701 18.2626 9.76007 18.3562 9.66648C18.4498 9.57289 18.5767 9.52031 18.7091 9.52031H25.1651C25.2975 9.52031 25.4244 9.57289 25.518 9.66648C25.6116 9.76007 25.6642 9.88701 25.6642 10.0194C25.6642 10.1517 25.6116 10.2787 25.518 10.3723C25.4244 10.4659 25.2975 10.5184 25.1651 10.5184H18.7091ZM18.7091 12.7962C18.643 12.7971 18.5775 12.7848 18.5162 12.7601C18.4549 12.7354 18.3992 12.6987 18.3522 12.6523C18.3052 12.6059 18.2678 12.5506 18.2424 12.4896C18.2169 12.4287 18.2038 12.3633 18.2038 12.2972C18.2038 12.2312 18.2169 12.1658 18.2424 12.1048C18.2678 12.0438 18.3052 11.9885 18.3522 11.9421C18.3992 11.8957 18.4549 11.8591 18.5162 11.8344C18.5775 11.8097 18.643 11.7974 18.7091 11.7982H25.1651C25.2311 11.7974 25.2967 11.8097 25.358 11.8344C25.4193 11.8591 25.475 11.8957 25.522 11.9421C25.569 11.9885 25.6063 12.0438 25.6318 12.1048C25.6573 12.1658 25.6704 12.2312 25.6704 12.2972C25.6704 12.3633 25.6573 12.4287 25.6318 12.4896C25.6063 12.5506 25.569 12.6059 25.522 12.6523C25.475 12.6987 25.4193 12.7354 25.358 12.7601C25.2967 12.7848 25.2311 12.7971 25.1651 12.7962H18.7091ZM13.3869 11.7944C13.2801 11.718 13.2078 11.6024 13.1858 11.4728C13.1638 11.3433 13.1939 11.2103 13.2695 11.1029C13.3451 10.9954 13.46 10.9222 13.5894 10.8991C13.7187 10.876 13.8519 10.9049 13.96 10.9796L14.8464 11.6034L16.1567 9.73468C16.2321 9.62663 16.3475 9.55298 16.4772 9.52995C16.607 9.50692 16.7406 9.53638 16.8487 9.61187C16.9567 9.68735 17.0304 9.80267 17.0534 9.93245C17.0764 10.0622 17.047 10.1958 16.9715 10.3039L15.3743 12.5838C15.2983 12.6919 15.1825 12.7653 15.0523 12.788C14.9222 12.8106 14.7884 12.7807 14.6803 12.7047L13.3869 11.7944ZM13.3869 17.4819C13.3328 17.4446 13.2866 17.3968 13.251 17.3415C13.2154 17.2862 13.1912 17.2244 13.1796 17.1596C13.1681 17.0949 13.1694 17.0285 13.1837 16.9643C13.1979 16.9001 13.2247 16.8393 13.2626 16.7855C13.3004 16.7317 13.3485 16.686 13.4041 16.6509C13.4598 16.6157 13.5218 16.592 13.5866 16.581C13.6515 16.57 13.7178 16.5719 13.7819 16.5867C13.846 16.6015 13.9065 16.6288 13.96 16.6671L14.8464 17.2909L16.1567 15.4222C16.194 15.3687 16.2416 15.3231 16.2966 15.2879C16.3516 15.2528 16.413 15.2289 16.4772 15.2175C16.5415 15.206 16.6074 15.2074 16.6711 15.2215C16.7348 15.2355 16.7952 15.262 16.8487 15.2994C16.9022 15.3367 16.9478 15.3843 16.9829 15.4393C17.0181 15.4943 17.042 15.5557 17.0534 15.6199C17.0648 15.6842 17.0635 15.7501 17.0494 15.8138C17.0353 15.8776 17.0089 15.9379 16.9715 15.9914L15.3743 18.2713C15.2983 18.3794 15.1825 18.4528 15.0523 18.4755C14.9222 18.4981 14.7884 18.4682 14.6803 18.3922L13.3869 17.4819ZM16.913 36.4832C17.0745 36.5764 17.1953 36.6508 17.4075 36.594C17.4722 36.5772 17.5329 36.5478 17.5861 36.5074C17.6394 36.467 17.684 36.4165 17.7176 36.3587L17.7167 36.3582L18.7756 34.5244C18.8319 34.4078 18.8424 34.2743 18.8052 34.1504C18.7679 34.0264 18.6855 33.9208 18.5743 33.8546L18.5738 33.8555L18.4645 33.7925L18.4649 33.7917C18.3476 33.7259 18.2092 33.7087 18.0793 33.7437C17.9494 33.7788 17.8384 33.8633 17.7701 33.9792L17.7692 33.9787L16.7266 35.7858C16.6603 35.9032 16.6427 36.0419 16.6777 36.1721C16.7127 36.3024 16.7974 36.4136 16.9136 36.482L16.9131 36.4829L16.913 36.4832ZM16.6021 34.0138L15.8648 35.2909C15.8132 35.3801 15.771 35.4744 15.7388 35.5722C15.652 35.7436 15.1477 36.0201 14.9131 35.8872L14.9135 35.8863L14.8042 35.8234L14.8037 35.8242C14.6925 35.758 14.6101 35.6524 14.5728 35.5285C14.5356 35.4045 14.5462 35.271 14.6025 35.1544L15.6617 33.3203C15.6951 33.2626 15.7397 33.212 15.7927 33.1716C15.8458 33.1311 15.9063 33.1016 15.9709 33.0846C16.1823 33.028 16.3059 33.1032 16.4654 33.1953L16.4649 33.1962C16.5226 33.2297 16.5732 33.2742 16.6136 33.3273C16.6541 33.3803 16.6836 33.4409 16.7006 33.5054C16.7692 33.7613 16.6407 33.8673 16.6021 34.0138ZM12.9142 31.7326C12.9486 31.673 12.987 31.6159 13.0292 31.5616C13.039 31.5038 13.0591 31.4482 13.0884 31.3975C13.1546 31.28 13.1721 31.1412 13.137 31.011C13.102 30.8808 13.0172 30.7695 12.9009 30.7012C12.741 30.609 12.6227 30.5318 12.4068 30.5897C12.3421 30.6064 12.2814 30.6359 12.2282 30.6762C12.175 30.7166 12.1303 30.7671 12.0967 30.8249L12.0976 30.8254L11.0391 32.6586C10.9828 32.7752 10.9722 32.9086 11.0094 33.0326C11.0467 33.1566 11.1291 33.2621 11.2403 33.3284L11.2408 33.3276L11.3497 33.3905L11.3492 33.3913C11.4666 33.4571 11.605 33.4743 11.7349 33.4393C11.8648 33.4042 11.9758 33.3197 12.0441 33.2038C12.0663 33.1653 12.0936 33.13 12.1252 33.0988L12.9143 31.7326H12.9142ZM14.7015 32.9919C14.7263 32.7841 14.892 32.7045 14.8149 32.4167C14.7981 32.3521 14.7686 32.2914 14.7283 32.2381C14.6879 32.1849 14.6374 32.1402 14.5796 32.1066L14.5791 32.1075L14.4702 32.0446L14.4706 32.0437C14.3533 31.978 14.2148 31.9608 14.0849 31.9959C13.955 32.031 13.844 32.1157 13.7758 32.2316L12.7317 34.0401L12.7309 34.0395C12.6645 34.1567 12.6473 34.2953 12.6831 34.4252C12.7416 34.6439 12.869 34.7056 13.0277 34.7973L13.0272 34.7981C13.1445 34.864 13.283 34.8812 13.4129 34.8462C13.5428 34.8111 13.6538 34.7265 13.722 34.6106C13.7552 34.5532 13.7995 34.503 13.8524 34.463L14.7015 32.9923V32.9919ZM18.7093 16.206C18.577 16.206 18.45 16.1534 18.3564 16.0598C18.2628 15.9662 18.2102 15.8393 18.2102 15.7069C18.2102 15.5746 18.2628 15.4476 18.3564 15.3541C18.45 15.2605 18.577 15.2079 18.7093 15.2079H25.1653C25.2977 15.2079 25.4246 15.2605 25.5182 15.3541C25.6118 15.4476 25.6644 15.5746 25.6644 15.7069C25.6644 15.8393 25.6118 15.9662 25.5182 16.0598C25.4246 16.1534 25.2977 16.206 25.1653 16.206H18.7093ZM18.7093 18.4838C18.6433 18.4846 18.5777 18.4724 18.5164 18.4476C18.4551 18.4229 18.3994 18.3863 18.3524 18.3399C18.3054 18.2935 18.2681 18.2382 18.2426 18.1772C18.2171 18.1163 18.204 18.0509 18.204 17.9848C18.204 17.9187 18.2171 17.8533 18.2426 17.7924C18.2681 17.7314 18.3054 17.6761 18.3524 17.6297C18.3994 17.5833 18.4551 17.5467 18.5164 17.522C18.5777 17.4972 18.6433 17.4849 18.7093 17.4858H25.1653C25.2314 17.4849 25.2969 17.4972 25.3582 17.522C25.4195 17.5467 25.4752 17.5833 25.5222 17.6297C25.5693 17.6761 25.6066 17.7314 25.632 17.7924C25.6575 17.8533 25.6706 17.9187 25.6706 17.9848C25.6706 18.0509 25.6575 18.1163 25.632 18.1772C25.6066 18.2382 25.5693 18.2935 25.5222 18.3399C25.4752 18.3863 25.4195 18.4229 25.3582 18.4476C25.2969 18.4724 25.2314 18.4846 25.1653 18.4838H18.7093ZM24.5195 3.27218H28.166C29.0826 3.27305 29.9615 3.63756 30.6096 4.28571C31.2577 4.93386 31.6222 5.81268 31.6231 6.72929V20.7987L36.197 26.4963C36.4187 26.7732 36.5216 27.1267 36.4831 27.4794C36.4446 27.832 36.2679 28.155 35.9917 28.3776L34.4429 29.6209C34.1926 29.8213 33.8789 29.9253 33.5585 29.9142C33.2382 29.9031 32.9324 29.7776 32.6966 29.5604L30.4787 30.3634C30.4432 30.3859 29.9006 30.9742 29.3702 31.2905C29.1526 31.4183 28.9222 31.5229 28.6827 31.6024C28.7431 31.7475 28.7858 31.8993 28.81 32.0545C28.8555 32.344 28.8349 32.64 28.7498 32.9204C28.6646 33.2008 28.5171 33.4582 28.3183 33.6735C28.1195 33.8888 27.8746 34.0563 27.6019 34.1634C27.3291 34.2706 27.0357 34.3147 26.7435 34.2923C26.652 35.4239 25.6776 36.1244 24.6185 36.0783C24.401 37.2416 23.3579 37.9127 22.2325 37.5321C22.0124 38.2477 21.4991 38.7879 20.6763 38.7468C19.784 38.7023 18.9213 37.9812 18.0863 37.371C17.8545 37.5194 17.5863 37.6013 17.3111 37.6075C17.0358 37.6138 16.7642 37.5443 16.5258 37.4066C16.212 37.2255 16.0064 37.0706 15.8319 36.732C15.7685 36.7624 15.7035 36.7894 15.6372 36.8127C15.2322 36.9551 14.7837 36.9591 14.4169 36.7473L14.2372 36.6409C13.9418 36.4485 13.7236 36.1583 13.6209 35.8211C13.1656 35.9266 12.8177 35.8251 12.4203 35.5956L12.4209 35.5948C12.2156 35.4763 12.0413 35.311 11.9122 35.1123C11.783 34.9136 11.7027 34.6872 11.6778 34.4516C11.3895 34.466 11.1032 34.3967 10.8535 34.252L10.6738 34.1456C10.3515 33.9356 10.1222 33.6099 10.0329 33.2358C9.94363 32.8616 10.0013 32.4675 10.1939 32.1346L10.1931 32.1341L10.5506 31.5149C10.0506 31.0376 10.2737 31.1677 9.7783 30.8487C9.64806 30.765 9.47728 30.655 9.30845 30.5451C8.78749 30.4907 8.2765 30.3648 7.78986 30.1711L7.78916 30.1727C7.50611 30.0574 7.24203 29.9 7.0058 29.7061C6.77588 29.8238 6.51683 29.8726 6.25985 29.8465C6.00286 29.8204 5.75891 29.7205 5.55736 29.559L4.00853 28.3156C3.73234 28.093 3.55566 27.77 3.51719 27.4174C3.47872 27.0648 3.5816 26.7113 3.8033 26.4344L8.3672 20.75V6.7289C8.36805 5.81228 8.73255 4.93344 9.3807 4.28529C10.0289 3.63714 10.9077 3.27264 11.8243 3.27179H15.481C15.5126 3.16995 15.5759 3.08087 15.6617 3.01761C15.7475 2.95435 15.8514 2.92023 15.958 2.92023H17.8734C18.2735 1.28523 20.319 0.681243 21.5374 1.88281C21.8262 2.16729 22.0304 2.52646 22.127 2.92023H24.0424C24.1489 2.92031 24.2526 2.95447 24.3384 3.01773C24.4241 3.08098 24.4874 3.17001 24.5189 3.27179L24.5195 3.27218ZM10.6172 18.1098V6.7289C10.6178 6.4091 10.7451 6.10258 10.9712 5.87645C11.1974 5.65032 11.5039 5.52301 11.8237 5.52242H15.4586V4.26992H11.824C11.1721 4.27068 10.5471 4.53 10.0861 4.99098C9.6251 5.45196 9.36578 6.07697 9.36501 6.7289V19.5062L10.2166 18.4453C10.3266 18.308 10.4628 18.194 10.6174 18.1098H10.6172ZM11.2227 18.9439C11.1778 18.9482 11.1343 18.9615 11.0948 18.983C11.0552 19.0044 11.0203 19.0337 10.9923 19.0689L4.57916 27.0582C4.52308 27.1294 4.49723 27.2198 4.50718 27.3099C4.51714 27.4 4.56209 27.4826 4.63236 27.5398L6.18111 28.7831C6.25233 28.8392 6.34273 28.865 6.43281 28.8551C6.5229 28.8451 6.60548 28.8002 6.66275 28.7299L13.0762 20.7409C13.1323 20.6696 13.1581 20.5792 13.1481 20.4891C13.1382 20.399 13.0932 20.3165 13.0229 20.2592L11.4742 19.0156C11.4032 18.9594 11.3129 18.9335 11.223 18.9436L11.2227 18.9439ZM20.0889 27.0756C22.4221 27.1831 25.3799 30.0522 27.4506 31.5848C28.1289 32.0869 27.8705 33.1616 27.0356 33.2916C26.912 33.3113 26.7858 33.3064 26.6642 33.2772C26.5425 33.248 26.4279 33.1951 26.3267 33.1215L23.8859 31.3387C23.8331 31.3003 23.7734 31.2726 23.7099 31.2573C23.6465 31.2421 23.5807 31.2394 23.5163 31.2495C23.4519 31.2597 23.39 31.2824 23.3344 31.3164C23.2787 31.3505 23.2303 31.3951 23.1919 31.4478C23.1535 31.5006 23.1259 31.5604 23.1106 31.6238C23.0953 31.6872 23.0927 31.753 23.1028 31.8174C23.1129 31.8819 23.1357 31.9437 23.1697 31.9993C23.2037 32.055 23.2484 32.1034 23.3011 32.1418L25.7414 33.9242C25.8866 35.1029 24.6196 35.2722 24.1386 34.9209L22.051 33.3961C21.9982 33.3577 21.9384 33.3301 21.875 33.3148C21.8116 33.2995 21.7458 33.2968 21.6814 33.307C21.6169 33.3171 21.5551 33.3398 21.4995 33.3739C21.4438 33.4079 21.3954 33.4525 21.357 33.5053C21.3186 33.558 21.291 33.6178 21.2757 33.6812C21.2604 33.7446 21.2577 33.8104 21.2679 33.8749C21.278 33.9393 21.3007 34.0011 21.3348 34.0568C21.3688 34.1124 21.4135 34.1608 21.4662 34.1992L23.5538 35.724C23.5869 35.7482 23.621 35.7712 23.656 35.793C23.606 36.2438 23.3357 36.6416 22.8645 36.644C22.6006 36.6454 22.3999 36.5461 22.1288 36.3607L20.7266 35.3365C20.6738 35.2981 20.6141 35.2704 20.5506 35.2552C20.4872 35.2399 20.4214 35.2372 20.357 35.2473C20.2926 35.2575 20.2307 35.2802 20.1751 35.3142C20.1194 35.3483 20.071 35.3929 20.0326 35.4457C19.9942 35.4984 19.9666 35.5582 19.9513 35.6216C19.936 35.685 19.9334 35.7508 19.9435 35.8152C19.9536 35.8797 19.9764 35.9415 20.0104 35.9971C20.0444 36.0528 20.0891 36.1012 20.1418 36.1396L21.3365 37.0123C21.2987 37.2381 21.1922 37.5952 20.9681 37.7097C20.6462 37.8737 20.0422 37.5695 19.5157 37.1851L18.7232 36.6062L19.6225 35.0485L19.6217 35.048C19.8144 34.7151 19.872 34.321 19.7827 33.9468C19.6934 33.5727 19.464 33.2471 19.1417 33.037L18.962 32.9306C18.7913 32.8318 18.6028 32.7677 18.4072 32.7419C18.2116 32.7162 18.0129 32.7293 17.8224 32.7805C17.718 32.8086 17.6169 32.8476 17.5208 32.897C17.3439 32.5827 17.1506 32.4431 16.8545 32.272L16.855 32.2712C16.5251 32.0803 16.1348 32.0222 15.7635 32.1087C15.6608 31.7714 15.4425 31.4812 15.147 31.2888L14.9674 31.1824C14.7175 31.0378 14.4312 30.9685 14.1429 30.9829C14.1182 30.7472 14.038 30.5207 13.909 30.3218C13.7801 30.123 13.6059 29.9575 13.4007 29.8388L13.2913 29.7759L13.2909 29.7768C12.958 29.5841 12.5638 29.5265 12.1897 29.6158C11.8156 29.705 11.4899 29.9345 11.2799 30.2567L11.0633 30.6254C10.9482 30.4993 10.8259 30.38 10.6971 30.2679C10.5313 30.1385 10.1106 29.879 9.75541 29.6466C9.68246 29.5987 9.5982 29.5709 9.51111 29.566C9.05315 29.5252 8.60321 29.4202 8.17447 29.2541L8.17517 29.2525C8.01451 29.1869 7.86209 29.1028 7.72103 29.0017L13.1292 22.2648C14.1588 22.6662 15.5574 23.3014 16.3935 23.5133C16.2461 23.6781 16.1057 23.8619 15.953 24.0617C15.6117 24.5083 15.1679 25.0804 14.8051 25.4793C14.4675 25.8505 14.232 26.02 14.13 26.4764C14.0747 26.7437 14.076 27.0195 14.1338 27.2862C14.3339 28.2023 15.1318 28.5929 16.0002 28.5909C16.6924 28.5895 17.1911 28.2835 17.7931 27.9159C18.3043 27.6034 19.1708 27.0736 19.8232 27.0759L20.0888 27.0752L20.0889 27.0756ZM20.0499 26.0791C20.0744 26.0791 20.0988 26.0809 20.1231 26.0844C22.3273 26.1888 24.8126 28.2016 26.7052 29.734C27.0605 30.0217 27.8113 30.6324 28.0146 30.7646C28.9223 30.5151 29.1715 30.2592 29.8551 29.58C29.9084 29.5268 29.9732 29.4865 30.0445 29.4621L32.0235 28.7455L26.694 22.1067C25.778 22.4372 25.0534 22.6792 24.2387 22.8062C23.326 22.9484 22.3384 22.9387 20.9035 22.7349C20.0768 22.6177 18.4206 23.3984 17.5845 23.8154C17.2533 23.9805 16.9927 24.3418 16.6902 24.7373C16.2729 25.2991 15.8255 25.838 15.3501 26.3516C15.2089 26.4991 15.1235 26.588 15.1008 26.6907C15.0605 26.871 15.093 27.1877 15.2289 27.3441C15.3899 27.5298 15.7666 27.5973 16.0002 27.5969C16.8148 27.5953 17.7015 26.5725 19.079 26.1933C19.3951 26.1067 19.7223 26.0681 20.0499 26.0788V26.0791ZM28.3742 18.0582V6.7289C28.3736 6.67379 28.3515 6.62108 28.3126 6.5821C28.2736 6.54312 28.2209 6.52099 28.1658 6.52046H24.5414V6.59374C24.5414 6.7261 24.4888 6.85302 24.3952 6.94661C24.3016 7.0402 24.1747 7.09278 24.0424 7.09281H15.9577C15.8253 7.09281 15.6984 7.04023 15.6048 6.94663C15.5112 6.85304 15.4586 6.7261 15.4586 6.59374V6.52015H11.824C11.7689 6.52068 11.7162 6.54281 11.6772 6.58179C11.6383 6.62077 11.6161 6.67348 11.6156 6.72859V17.9934C11.7916 18.0417 11.9558 18.1257 12.098 18.2401L13.6467 19.4834C13.923 19.7059 14.0997 20.0289 14.1381 20.3816C14.1766 20.7342 14.0737 21.0877 13.852 21.3646L13.7826 21.4511C14.1654 21.6037 14.5131 21.748 14.8301 21.8791C16.0723 22.3937 16.8099 22.6994 17.694 22.6538C18.0781 22.4734 18.5227 22.2788 18.9775 22.1134C19.7087 21.8477 20.4609 21.6663 21.04 21.7486C22.3752 21.9381 23.2759 21.9501 24.0869 21.8237C24.7204 21.725 25.3227 21.5372 26.0467 21.2812C25.8794 21.0037 25.8183 20.6749 25.8747 20.3558C25.9312 20.0366 26.1013 19.7488 26.3536 19.5454L27.9024 18.302C28.0418 18.1899 28.2023 18.107 28.3745 18.0582H28.3742ZM28.8168 19.0124C28.7665 19.0006 28.7142 19.0004 28.6638 19.0117C28.6134 19.023 28.5663 19.0457 28.5259 19.0779L26.977 20.3212C26.9068 20.3784 26.8619 20.461 26.8519 20.5511C26.8419 20.6412 26.8678 20.7316 26.9238 20.8028L33.3373 28.7919C33.3945 28.8621 33.4771 28.9071 33.5672 28.917C33.6573 28.927 33.7477 28.9011 33.8189 28.8451L35.3677 27.6016C35.4379 27.5443 35.4829 27.4617 35.4928 27.3717C35.5028 27.2816 35.4769 27.1912 35.4209 27.12L29.0078 19.1311C28.9596 19.071 28.8924 19.0292 28.8172 19.0124H28.8168ZM24.5414 5.52242H28.1658C28.4856 5.52303 28.7921 5.65035 29.0182 5.87648C29.2443 6.1026 29.3716 6.40912 29.3722 6.7289V18.1664C29.5309 18.2511 29.6708 18.3671 29.7833 18.5074L30.625 19.5555V6.7289C30.6242 6.07698 30.3649 5.45199 29.904 4.99101C29.443 4.53003 28.818 4.2707 28.1661 4.26992H24.5414V5.52242Z" fill="url(#paint0_linear_336_2661)"/>
<defs>
<linearGradient id="paint0_linear_336_2661" x1="3.00854" y1="10.3745" x2="38.103" y2="12.0697" gradientUnits="userSpaceOnUse">
<stop offset="0.153052" stop-color="#B352F4"/>
<stop offset="1" stop-color="#EF3AA5"/>
</linearGradient>
</defs>
</svg>
