<svg width="24" height="24" viewBox="0 0 24 24" fill="none" xmlns="http://www.w3.org/2000/svg">
<rect width="24" height="24" rx="12" fill="url(#paint0_linear_336_3700)"/>
<path d="M18.998 11.7495V12.2495C18.998 12.5256 18.7743 12.7495 18.4981 12.7495H12.7481V18.4995C12.7481 18.7756 12.5242 18.9995 12.248 18.9995H11.7481C11.4719 18.9995 11.2481 18.7756 11.2481 18.4995V12.7495H5.49805C5.22191 12.7495 4.99805 12.5256 4.99805 12.2495V11.7495C4.99805 11.4734 5.22191 11.2495 5.49805 11.2495H11.2481V5.49951C11.2481 5.22336 11.4719 4.99951 11.7481 4.99951H12.248C12.5242 4.99951 12.7481 5.22336 12.7481 5.49951V11.2495H18.4981C18.7743 11.2495 18.998 11.4734 18.998 11.7495Z" fill="white"/>
<defs>
<linearGradient id="paint0_linear_336_3700" x1="-0.364377" y1="5.83938" x2="25.1556" y2="7.24088" gradientUnits="userSpaceOnUse">
<stop stop-color="#FECB32"/>
<stop offset="1" stop-color="#F55D22"/>
</linearGradient>
</defs>
</svg>
