<svg width="1440" height="736" viewBox="0 0 1440 736" fill="none" xmlns="http://www.w3.org/2000/svg">
<g clip-path="url(#clip0_438_1362)">
<rect width="1440" height="736" fill="white"/>
<g style="mix-blend-mode:multiply" opacity="0.5" filter="url(#filter0_f_438_1362)">
<g filter="url(#filter1_f_438_1362)">
<g filter="url(#filter2_f_438_1362)">
<path d="M678.214 345.5C712.929 188.641 762.266 119 499.188 169.716C130.401 99.7991 -85.4621 -48.995 -183.979 29.296C-278.744 104.606 -122.506 97.1781 -268.115 206.284C-434.63 331.055 370.585 344.222 516.335 359.225C533.458 360.987 550.933 364.414 567.383 369.049C634.335 387.915 663.358 566.999 678.214 345.5Z" fill="url(#paint0_linear_438_1362)"/>
</g>
</g>
<g filter="url(#filter3_f_438_1362)">
<g filter="url(#filter4_f_438_1362)">
<path d="M1733.11 720.5C1757.72 563.641 1792.7 494 1606.17 544.716C1344.69 474.799 1191.64 326.005 1121.78 404.296C1054.59 479.606 1165.37 472.178 1062.13 581.284C944.065 706.055 1514.99 719.222 1618.33 734.225C1630.47 735.987 1642.86 739.414 1654.53 744.049C1702 762.915 1722.57 941.999 1733.11 720.5Z" fill="url(#paint1_linear_438_1362)"/>
</g>
</g>
</g>
<g opacity="0.07">
<path d="M1652 -564H-211V1299H1652V-564Z" stroke="#4B4C4D"/>
<path d="M1598.06 -510.065H-157.066V1245.07H1598.06V-510.065Z" stroke="#4B4C4D"/>
<path d="M1545.74 -457.741H-104.742V1192.74H1545.74V-457.741Z" stroke="#4B4C4D"/>
<path d="M1495.03 -407.026H-54.0269V1142.03H1495.03V-407.026Z" stroke="#4B4C4D"/>
<path d="M1445.92 -357.922H-4.92285V1092.92H1445.92V-357.922Z" stroke="#4B4C4D"/>
<path d="M1398.43 -310.428H42.5718V1045.43H1398.43V-310.428Z" stroke="#4B4C4D"/>
<path d="M1352.54 -264.543H88.4563V999.543H1352.54V-264.543Z" stroke="#4B4C4D"/>
<path d="M1308.27 -220.269H132.731V955.269H1308.27V-220.269Z" stroke="#4B4C4D"/>
<path d="M1265.6 -177.605H175.395V912.604H1265.6V-177.605Z" stroke="#4B4C4D"/>
<path d="M1224.55 -136.55H216.449V871.55H1224.55V-136.55Z" stroke="#4B4C4D"/>
<path d="M1185.11 -97.1055H255.894V832.106H1185.11V-97.1055Z" stroke="#4B4C4D"/>
<path d="M1147.27 -59.2712H293.729V794.271H1147.27V-59.2712Z" stroke="#4B4C4D"/>
<path d="M1111.05 -23.0464H329.953V758.047H1111.05V-23.0464Z" stroke="#4B4C4D"/>
<path d="M1076.43 11.5681H364.568V723.432H1076.43V11.5681Z" stroke="#4B4C4D"/>
<path d="M1043.43 44.5728H397.572V690.428H1043.43V44.5728Z" stroke="#4B4C4D"/>
<path d="M1012.03 75.9673H428.967V659.033H1012.03V75.9673Z" stroke="#4B4C4D"/>
<path d="M982.248 105.752H458.751V629.248H982.248V105.752Z" stroke="#4B4C4D"/>
<path d="M954.073 133.927H486.926V601.074H954.073V133.927Z" stroke="#4B4C4D"/>
<path d="M927.508 160.491H513.49V574.509H927.508V160.491Z" stroke="#4B4C4D"/>
<path d="M902.554 185.446H538.445V549.554H902.554V185.446Z" stroke="#4B4C4D"/>
<path d="M879.209 208.791H561.79V526.21H879.209V208.791Z" stroke="#4B4C4D"/>
<path d="M857.474 230.525H583.525V504.475H857.474V230.525Z" stroke="#4B4C4D"/>
<path d="M837.349 250.65H603.649V484.35H837.349V250.65Z" stroke="#4B4C4D"/>
<path d="M818.835 269.165H622.165V465.836H818.835V269.165Z" stroke="#4B4C4D"/>
<path d="M801.93 286.07H639.069V448.931H801.93V286.07Z" stroke="#4B4C4D"/>
<path d="M786.636 301.364H654.364V433.636H786.636V301.364Z" stroke="#4B4C4D"/>
<path d="M772.951 315.05H668.049V419.951H772.951V315.05Z" stroke="#4B4C4D"/>
<path d="M760.875 327.124H680.123V407.876H760.875V327.124Z" stroke="#4B4C4D"/>
<path d="M750.411 337.589H690.588V397.411H750.411V337.589Z" stroke="#4B4C4D"/>
<path d="M741.556 346.444H699.444V388.557H741.556V346.444Z" stroke="#4B4C4D"/>
<path d="M734.311 353.689H706.688V381.312H734.311V353.689Z" stroke="#4B4C4D"/>
<path d="M728.676 359.324H712.323V375.677H728.676V359.324Z" stroke="#4B4C4D"/>
<path d="M724.651 363.349H716.348V371.652H724.651V363.349Z" stroke="#4B4C4D"/>
<path d="M722.236 365.764H718.763V369.237H722.236V365.764Z" stroke="#4B4C4D"/>
<path d="M721.431 366.569H719.568V368.432H721.431V366.569Z" stroke="#4B4C4D"/>
<path d="M719.568 368.431L-211 1299" stroke="#4B4C4D"/>
<path d="M719.623 368.431L-128.702 1299" stroke="#4B4C4D"/>
<path d="M719.677 368.431L-53.0567 1299" stroke="#4B4C4D"/>
<path d="M719.733 368.431L17.0002 1299" stroke="#4B4C4D"/>
<path d="M719.788 368.431L82.3336 1299" stroke="#4B4C4D"/>
<path d="M719.842 368.431L143.659 1299" stroke="#4B4C4D"/>
<path d="M719.897 368.431L201.574 1299" stroke="#4B4C4D"/>
<path d="M719.952 368.431L256.584 1299" stroke="#4B4C4D"/>
<path d="M720.007 368.431L309.121 1299" stroke="#4B4C4D"/>
<path d="M720.061 368.431L359.557 1299" stroke="#4B4C4D"/>
<path d="M720.116 368.431L408.221 1299" stroke="#4B4C4D"/>
<path d="M720.17 368.431L455.401 1299" stroke="#4B4C4D"/>
<path d="M720.226 368.431L501.358 1299" stroke="#4B4C4D"/>
<path d="M720.28 368.431L546.327 1299" stroke="#4B4C4D"/>
<path d="M720.335 368.431L590.527 1299" stroke="#4B4C4D"/>
<path d="M720.39 368.431L634.16 1299" stroke="#4B4C4D"/>
<path d="M720.445 368.431L677.422 1299" stroke="#4B4C4D"/>
<path d="M720.5 368.431V1299" stroke="#4B4C4D"/>
<path d="M720.554 368.431L763.577 1299" stroke="#4B4C4D"/>
<path d="M720.609 368.431L806.839 1299" stroke="#4B4C4D"/>
<path d="M720.664 368.431L850.473 1299" stroke="#4B4C4D"/>
<path d="M720.719 368.431L894.672 1299" stroke="#4B4C4D"/>
<path d="M720.773 368.431L939.641 1299" stroke="#4B4C4D"/>
<path d="M720.828 368.431L985.598 1299" stroke="#4B4C4D"/>
<path d="M720.883 368.431L1032.78 1299" stroke="#4B4C4D"/>
<path d="M720.938 368.431L1081.44 1299" stroke="#4B4C4D"/>
<path d="M720.993 368.431L1131.88 1299" stroke="#4B4C4D"/>
<path d="M721.047 368.431L1184.42 1299" stroke="#4B4C4D"/>
<path d="M721.102 368.431L1239.43 1299" stroke="#4B4C4D"/>
<path d="M721.157 368.431L1297.34 1299" stroke="#4B4C4D"/>
<path d="M721.212 368.431L1358.67 1299" stroke="#4B4C4D"/>
<path d="M721.267 368.431L1424 1299" stroke="#4B4C4D"/>
<path d="M721.321 368.431L1494.06 1299" stroke="#4B4C4D"/>
<path d="M721.377 368.431L1569.7 1299" stroke="#4B4C4D"/>
<path d="M721.431 368.431L1652 1299" stroke="#4B4C4D"/>
<path d="M719.568 366.569L-211 -564" stroke="#4B4C4D"/>
<path d="M719.568 366.623L-211 -481.702" stroke="#4B4C4D"/>
<path d="M719.568 366.677L-211 -406.056" stroke="#4B4C4D"/>
<path d="M719.568 366.733L-211 -335.999" stroke="#4B4C4D"/>
<path d="M719.568 366.788L-211 -270.666" stroke="#4B4C4D"/>
<path d="M719.568 366.842L-211 -209.341" stroke="#4B4C4D"/>
<path d="M719.568 366.897L-211 -151.426" stroke="#4B4C4D"/>
<path d="M719.568 366.952L-211 -96.4155" stroke="#4B4C4D"/>
<path d="M719.568 367.007L-211 -43.8792" stroke="#4B4C4D"/>
<path d="M719.568 367.062L-211 6.55752" stroke="#4B4C4D"/>
<path d="M719.568 367.116L-211 55.2212" stroke="#4B4C4D"/>
<path d="M719.568 367.171L-211 102.401" stroke="#4B4C4D"/>
<path d="M719.568 367.226L-211 148.358" stroke="#4B4C4D"/>
<path d="M719.568 367.281L-211 193.327" stroke="#4B4C4D"/>
<path d="M719.568 367.336L-211 237.527" stroke="#4B4C4D"/>
<path d="M719.568 367.39L-211 281.16" stroke="#4B4C4D"/>
<path d="M719.568 367.446L-211 324.423" stroke="#4B4C4D"/>
<path d="M719.568 367.5L-211 367.5" stroke="#4B4C4D"/>
<path d="M719.568 367.555L-211 410.577" stroke="#4B4C4D"/>
<path d="M719.568 367.609L-211 453.839" stroke="#4B4C4D"/>
<path d="M719.568 367.665L-211 497.473" stroke="#4B4C4D"/>
<path d="M719.568 367.719L-211 541.673" stroke="#4B4C4D"/>
<path d="M719.568 367.774L-211 586.642" stroke="#4B4C4D"/>
<path d="M719.568 367.828L-211 632.598" stroke="#4B4C4D"/>
<path d="M719.568 367.884L-211 679.779" stroke="#4B4C4D"/>
<path d="M719.568 367.939L-211 728.443" stroke="#4B4C4D"/>
<path d="M719.568 367.993L-211 778.879" stroke="#4B4C4D"/>
<path d="M719.568 368.047L-211 831.415" stroke="#4B4C4D"/>
<path d="M719.568 368.102L-211 886.425" stroke="#4B4C4D"/>
<path d="M719.568 368.158L-211 944.341" stroke="#4B4C4D"/>
<path d="M719.568 368.212L-211 1005.67" stroke="#4B4C4D"/>
<path d="M719.568 368.267L-211 1071" stroke="#4B4C4D"/>
<path d="M719.568 368.322L-211 1141.06" stroke="#4B4C4D"/>
<path d="M719.568 368.377L-211 1216.7" stroke="#4B4C4D"/>
<path d="M719.568 368.431L-211 1299" stroke="#4B4C4D"/>
<path d="M721.431 366.568L1652 -564" stroke="#4B4C4D"/>
<path d="M721.377 366.568L1569.7 -564" stroke="#4B4C4D"/>
<path d="M721.322 366.568L1494.06 -564" stroke="#4B4C4D"/>
<path d="M721.267 366.568L1424 -564" stroke="#4B4C4D"/>
<path d="M721.212 366.568L1358.67 -564" stroke="#4B4C4D"/>
<path d="M721.157 366.568L1297.34 -564" stroke="#4B4C4D"/>
<path d="M721.103 366.568L1239.43 -564" stroke="#4B4C4D"/>
<path d="M721.047 366.568L1184.42 -564" stroke="#4B4C4D"/>
<path d="M720.993 366.568L1131.88 -564" stroke="#4B4C4D"/>
<path d="M720.938 366.568L1081.44 -564" stroke="#4B4C4D"/>
<path d="M720.884 366.568L1032.78 -564" stroke="#4B4C4D"/>
<path d="M720.829 366.568L985.599 -564" stroke="#4B4C4D"/>
<path d="M720.774 366.568L939.642 -564" stroke="#4B4C4D"/>
<path d="M720.719 366.568L894.673 -564" stroke="#4B4C4D"/>
<path d="M720.664 366.568L850.473 -564" stroke="#4B4C4D"/>
<path d="M720.61 366.568L806.84 -564" stroke="#4B4C4D"/>
<path d="M720.554 366.568L763.577 -564" stroke="#4B4C4D"/>
<path d="M720.5 366.568L720.5 -564" stroke="#4B4C4D"/>
<path d="M720.445 366.568L677.423 -564" stroke="#4B4C4D"/>
<path d="M720.391 366.568L634.161 -564" stroke="#4B4C4D"/>
<path d="M720.335 366.568L590.527 -564" stroke="#4B4C4D"/>
<path d="M720.281 366.568L546.327 -564" stroke="#4B4C4D"/>
<path d="M720.226 366.568L501.358 -564" stroke="#4B4C4D"/>
<path d="M720.171 366.568L455.402 -564" stroke="#4B4C4D"/>
<path d="M720.116 366.568L408.221 -564" stroke="#4B4C4D"/>
<path d="M720.061 366.568L359.557 -564" stroke="#4B4C4D"/>
<path d="M720.007 366.568L309.121 -564" stroke="#4B4C4D"/>
<path d="M719.952 366.568L256.584 -564" stroke="#4B4C4D"/>
<path d="M719.898 366.568L201.575 -564" stroke="#4B4C4D"/>
<path d="M719.842 366.568L143.659 -564" stroke="#4B4C4D"/>
<path d="M719.788 366.568L82.3336 -564" stroke="#4B4C4D"/>
<path d="M719.733 366.568L17.0007 -564" stroke="#4B4C4D"/>
<path d="M719.678 366.568L-53.0555 -564" stroke="#4B4C4D"/>
<path d="M719.623 366.568L-128.702 -564" stroke="#4B4C4D"/>
<path d="M719.569 366.568L-211 -564" stroke="#4B4C4D"/>
<path d="M721.431 368.431L1652 1299" stroke="#4B4C4D"/>
<path d="M721.431 368.376L1652 1216.7" stroke="#4B4C4D"/>
<path d="M721.431 368.322L1652 1141.06" stroke="#4B4C4D"/>
<path d="M721.431 368.267L1652 1071" stroke="#4B4C4D"/>
<path d="M721.431 368.212L1652 1005.67" stroke="#4B4C4D"/>
<path d="M721.431 368.157L1652 944.341" stroke="#4B4C4D"/>
<path d="M721.431 368.103L1652 886.426" stroke="#4B4C4D"/>
<path d="M721.431 368.047L1652 831.415" stroke="#4B4C4D"/>
<path d="M721.431 367.993L1652 778.879" stroke="#4B4C4D"/>
<path d="M721.431 367.938L1652 728.442" stroke="#4B4C4D"/>
<path d="M721.431 367.883L1652 679.778" stroke="#4B4C4D"/>
<path d="M721.431 367.829L1652 632.598" stroke="#4B4C4D"/>
<path d="M721.431 367.773L1652 586.641" stroke="#4B4C4D"/>
<path d="M721.431 367.719L1652 541.672" stroke="#4B4C4D"/>
<path d="M721.431 367.664L1652 497.473" stroke="#4B4C4D"/>
<path d="M721.431 367.61L1652 453.84" stroke="#4B4C4D"/>
<path d="M721.431 367.554L1652 410.577" stroke="#4B4C4D"/>
<path d="M721.431 367.5L1652 367.5" stroke="#4B4C4D"/>
<path d="M721.431 367.445L1652 324.423" stroke="#4B4C4D"/>
<path d="M721.431 367.391L1652 281.161" stroke="#4B4C4D"/>
<path d="M721.431 367.335L1652 237.527" stroke="#4B4C4D"/>
<path d="M721.431 367.281L1652 193.327" stroke="#4B4C4D"/>
<path d="M721.431 367.226L1652 148.358" stroke="#4B4C4D"/>
<path d="M721.431 367.171L1652 102.402" stroke="#4B4C4D"/>
<path d="M721.431 367.116L1652 55.2207" stroke="#4B4C4D"/>
<path d="M721.431 367.061L1652 6.55727" stroke="#4B4C4D"/>
<path d="M721.431 367.007L1652 -43.8795" stroke="#4B4C4D"/>
<path d="M721.431 366.952L1652 -96.416" stroke="#4B4C4D"/>
<path d="M721.431 366.897L1652 -151.426" stroke="#4B4C4D"/>
<path d="M721.431 366.842L1652 -209.341" stroke="#4B4C4D"/>
<path d="M721.431 366.787L1652 -270.667" stroke="#4B4C4D"/>
<path d="M721.431 366.733L1652 -336" stroke="#4B4C4D"/>
<path d="M721.431 366.678L1652 -406.056" stroke="#4B4C4D"/>
<path d="M721.431 366.623L1652 -481.702" stroke="#4B4C4D"/>
<path d="M721.431 366.568L1652 -564" stroke="#4B4C4D"/>
</g>
</g>
<defs>
<filter id="filter0_f_438_1362" x="-518" y="-374" width="2507" height="1586" filterUnits="userSpaceOnUse" color-interpolation-filters="sRGB">
<feFlood flood-opacity="0" result="BackgroundImageFix"/>
<feBlend mode="normal" in="SourceGraphic" in2="BackgroundImageFix" result="shape"/>
<feGaussianBlur stdDeviation="63.5" result="effect1_foregroundBlur_438_1362"/>
</filter>
<filter id="filter1_f_438_1362" x="-891" y="-747" width="2251" height="1957" filterUnits="userSpaceOnUse" color-interpolation-filters="sRGB">
<feFlood flood-opacity="0" result="BackgroundImageFix"/>
<feBlend mode="normal" in="SourceGraphic" in2="BackgroundImageFix" result="shape"/>
<feGaussianBlur stdDeviation="250" result="effect1_foregroundBlur_438_1362"/>
</filter>
<filter id="filter2_f_438_1362" x="-531.637" y="-233.842" width="1478.79" height="930.071" filterUnits="userSpaceOnUse" color-interpolation-filters="sRGB">
<feFlood flood-opacity="0" result="BackgroundImageFix"/>
<feBlend mode="normal" in="SourceGraphic" in2="BackgroundImageFix" result="shape"/>
<feGaussianBlur stdDeviation="120.483" result="effect1_foregroundBlur_438_1362"/>
</filter>
<filter id="filter3_f_438_1362" x="575" y="-272" width="1687" height="1757" filterUnits="userSpaceOnUse" color-interpolation-filters="sRGB">
<feFlood flood-opacity="0" result="BackgroundImageFix"/>
<feBlend mode="normal" in="SourceGraphic" in2="BackgroundImageFix" result="shape"/>
<feGaussianBlur stdDeviation="200" result="effect1_foregroundBlur_438_1362"/>
</filter>
<filter id="filter4_f_438_1362" x="805.171" y="141.158" width="1188.74" height="930.071" filterUnits="userSpaceOnUse" color-interpolation-filters="sRGB">
<feFlood flood-opacity="0" result="BackgroundImageFix"/>
<feBlend mode="normal" in="SourceGraphic" in2="BackgroundImageFix" result="shape"/>
<feGaussianBlur stdDeviation="120.483" result="effect1_foregroundBlur_438_1362"/>
</filter>
<linearGradient id="paint0_linear_438_1362" x1="-305.806" y1="116.159" x2="741.754" y2="244.131" gradientUnits="userSpaceOnUse">
<stop stop-color="#FECB32"/>
<stop offset="1" stop-color="#F55D22"/>
</linearGradient>
<linearGradient id="paint1_linear_438_1362" x1="1035.41" y1="491.159" x2="1783.63" y2="555.968" gradientUnits="userSpaceOnUse">
<stop offset="0.153052" stop-color="#B352F4"/>
<stop offset="1" stop-color="#EF3AA5"/>
</linearGradient>
<clipPath id="clip0_438_1362">
<rect width="1440" height="736" fill="white"/>
</clipPath>
</defs>
</svg>
